<svg width="201" height="100" viewBox="0 0 201 100" fill="none" xmlns="http://www.w3.org/2000/svg">
<path d="M112.139 27.9452L114.204 31.6111L115.222 31.0138L113.137 27.3124L114.464 27.6631L114.758 26.5033L111.511 25.6445L110.668 28.966L111.804 29.2662L112.139 27.9452Z" fill="#AAAAAA"/>
<path d="M107.392 30.7753L109.458 34.4411L110.475 33.8439L108.389 30.1424L109.717 30.4932L110.011 29.3334L106.764 28.4746L105.921 31.796L107.057 32.0962L107.392 30.7753Z" fill="#AAAAAA"/>
<path d="M109.658 37.5101L117.933 32.5627L117.34 31.5293L109.065 36.4759L109.658 37.5101Z" fill="#AAAAAA"/>
<path d="M112.513 43.4924L126.676 34.7852L107.345 2L88.8838 13.35L106.289 42.8691C102.139 43.9791 99.2257 48.0021 99.5765 52.5181C99.951 57.3406 103.915 61.012 108.574 61.012C108.812 61.012 109.053 61.0026 109.296 60.9828C114.261 60.5799 117.979 56.1279 117.585 51.0589C117.324 47.6821 115.301 44.875 112.513 43.4924ZM106.678 4.74151L123.992 34.1041L110.03 42.6874C109.497 42.5989 108.951 42.557 108.395 42.5689L91.5684 14.0311L106.678 4.74151ZM109.141 58.9919C105.249 59.3095 101.835 56.3325 101.526 52.3601C101.217 48.3885 104.131 44.9003 108.021 44.5851C108.212 44.5693 108.403 44.5614 108.593 44.5614C110.272 44.5614 111.881 45.165 113.173 46.2908C114.611 47.5431 115.486 49.2931 115.635 51.2169C115.944 55.1885 113.031 58.6758 109.141 58.9919Z" fill="#AAAAAA"/>
<path d="M108.428 49.8269C107.369 49.913 106.576 50.8627 106.659 51.9443C106.739 52.9729 107.585 53.7567 108.58 53.7567C108.631 53.7567 108.682 53.7551 108.733 53.7503C109.793 53.6642 110.586 52.7146 110.502 51.633C110.418 50.5514 109.484 49.7384 108.428 49.8269ZM108.641 52.5566C108.23 52.5937 107.863 52.2729 107.829 51.8495C107.796 51.4268 108.107 51.0554 108.522 51.0215C108.541 51.0199 108.562 51.0191 108.582 51.0191C108.97 51.0191 109.301 51.3256 109.333 51.7286C109.365 52.1513 109.055 52.5226 108.641 52.5566Z" fill="#AAAAAA"/>
<path d="M101.718 43.5567L102.346 43.0107L81.0188 6.35109C79.9672 4.54422 78.1145 3.38047 76.0619 3.23668L71.1343 2.89062L71 4.88317L75.9284 5.22921C77.3402 5.32797 78.6146 6.12909 79.3375 7.37185L99.8372 42.6086C97.1803 45.2537 95.785 49.0026 96.0805 52.8012L98.0304 52.6432C97.7618 49.1985 99.1412 45.802 101.718 43.5567Z" fill="#AAAAAA"/>
<path d="M128.449 37.9316L117.133 44.8257L118.269 46.4595L129.45 39.6469L128.449 37.9316Z" fill="#AAAAAA"/>
<path d="M59.3262 93.2324H55.7461V97H54.6211V88.4688H59.9062V89.3945H55.7461V92.3125H59.3262V93.2324ZM65.1328 93.5488H63.1289V97H61.998V88.4688H64.8223C65.7832 88.4688 66.5215 88.6875 67.0371 89.125C67.5566 89.5625 67.8164 90.1992 67.8164 91.0352C67.8164 91.5664 67.6719 92.0293 67.3828 92.4238C67.0977 92.8184 66.6992 93.1133 66.1875 93.3086L68.1914 96.9297V97H66.9844L65.1328 93.5488ZM63.1289 92.6289H64.8574C65.416 92.6289 65.8594 92.4844 66.1875 92.1953C66.5195 91.9062 66.6855 91.5195 66.6855 91.0352C66.6855 90.5078 66.5273 90.1035 66.2109 89.8223C65.8984 89.541 65.4453 89.3984 64.8516 89.3945H63.1289V92.6289ZM74.9707 93.0566H71.2734V96.0801H75.5684V97H70.1484V88.4688H75.5098V89.3945H71.2734V92.1367H74.9707V93.0566ZM82.541 93.0566H78.8438V96.0801H83.1387V97H77.7188V88.4688H83.0801V89.3945H78.8438V92.1367H82.541V93.0566ZM91.5293 93.1973C90.5645 92.9199 89.8613 92.5801 89.4199 92.1777C88.9824 91.7715 88.7637 91.2715 88.7637 90.6777C88.7637 90.0059 89.0312 89.4512 89.5664 89.0137C90.1055 88.5723 90.8047 88.3516 91.6641 88.3516C92.25 88.3516 92.7715 88.4648 93.2285 88.6914C93.6895 88.918 94.0449 89.2305 94.2949 89.6289C94.5488 90.0273 94.6758 90.4629 94.6758 90.9355H93.5449C93.5449 90.4199 93.3809 90.0156 93.0527 89.7227C92.7246 89.4258 92.2617 89.2773 91.6641 89.2773C91.1094 89.2773 90.6758 89.4004 90.3633 89.6465C90.0547 89.8887 89.9004 90.2266 89.9004 90.6602C89.9004 91.0078 90.0469 91.3027 90.3398 91.5449C90.6367 91.7832 91.1387 92.002 91.8457 92.2012C92.5566 92.4004 93.1113 92.6211 93.5098 92.8633C93.9121 93.1016 94.209 93.3809 94.4004 93.7012C94.5957 94.0215 94.6934 94.3984 94.6934 94.832C94.6934 95.5234 94.4238 96.0781 93.8848 96.4961C93.3457 96.9102 92.625 97.1172 91.7227 97.1172C91.1367 97.1172 90.5898 97.0059 90.082 96.7832C89.5742 96.5566 89.1816 96.248 88.9043 95.8574C88.6309 95.4668 88.4941 95.0234 88.4941 94.5273H89.625C89.625 95.043 89.8145 95.4512 90.1934 95.752C90.5762 96.0488 91.0859 96.1973 91.7227 96.1973C92.3164 96.1973 92.7715 96.0762 93.0879 95.834C93.4043 95.5918 93.5625 95.2617 93.5625 94.8438C93.5625 94.4258 93.416 94.1035 93.123 93.877C92.8301 93.6465 92.2988 93.4199 91.5293 93.1973ZM103.447 97H102.316V93.0566H98.0156V97H96.8906V88.4688H98.0156V92.1367H102.316V88.4688H103.447V97ZM107.402 97H106.277V88.4688H107.402V97ZM111.34 93.6602V97H110.215V88.4688H113.361C114.295 88.4688 115.025 88.707 115.553 89.1836C116.084 89.6602 116.35 90.291 116.35 91.0762C116.35 91.9043 116.09 92.543 115.57 92.9922C115.055 93.4375 114.314 93.6602 113.35 93.6602H111.34ZM111.34 92.7402H113.361C113.963 92.7402 114.424 92.5996 114.744 92.3184C115.064 92.0332 115.225 91.623 115.225 91.0879C115.225 90.5801 115.064 90.1738 114.744 89.8691C114.424 89.5645 113.984 89.4062 113.426 89.3945H111.34V92.7402ZM119.66 93.6602V97H118.535V88.4688H121.682C122.615 88.4688 123.346 88.707 123.873 89.1836C124.404 89.6602 124.67 90.291 124.67 91.0762C124.67 91.9043 124.41 92.543 123.891 92.9922C123.375 93.4375 122.635 93.6602 121.67 93.6602H119.66ZM119.66 92.7402H121.682C122.283 92.7402 122.744 92.5996 123.064 92.3184C123.385 92.0332 123.545 91.623 123.545 91.0879C123.545 90.5801 123.385 90.1738 123.064 89.8691C122.744 89.5645 122.305 89.4062 121.746 89.3945H119.66V92.7402ZM128.062 97H126.938V88.4688H128.062V97ZM137.432 97H136.301L132.006 90.4258V97H130.875V88.4688H132.006L136.312 95.0723V88.4688H137.432V97ZM146.479 95.8809C146.189 96.2949 145.785 96.6055 145.266 96.8125C144.75 97.0156 144.148 97.1172 143.461 97.1172C142.766 97.1172 142.148 96.9551 141.609 96.6309C141.07 96.3027 140.652 95.8379 140.355 95.2363C140.062 94.6348 139.912 93.9375 139.904 93.1445V92.4004C139.904 91.1152 140.203 90.1191 140.801 89.4121C141.402 88.7051 142.246 88.3516 143.332 88.3516C144.223 88.3516 144.939 88.5801 145.482 89.0371C146.025 89.4902 146.357 90.1348 146.479 90.9707H145.354C145.143 89.8418 144.471 89.2773 143.338 89.2773C142.584 89.2773 142.012 89.543 141.621 90.0742C141.234 90.6016 141.039 91.3672 141.035 92.3711V93.0684C141.035 94.0254 141.254 94.7871 141.691 95.3535C142.129 95.916 142.721 96.1973 143.467 96.1973C143.889 96.1973 144.258 96.1504 144.574 96.0566C144.891 95.9629 145.152 95.8047 145.359 95.582V93.666H143.385V92.752H146.479V95.8809Z" fill="#1A1A1A"/>
</svg>
