<svg width="201" height="100" viewBox="0 0 201 100" fill="none" xmlns="http://www.w3.org/2000/svg">
<path d="M116.854 26.3236L110.136 26.3227L74.0748 26.32C72.3545 26.32 70.9546 24.8905 70.9546 23.1334C70.9546 21.3762 72.3545 19.9467 74.0757 19.9467L114.584 19.9494V17.9553L74.0757 17.9526C71.2785 17.9526 69.0027 20.276 69.0018 23.1325L69 58.8151C69 60.3927 70.2564 61.676 71.8017 61.676L116.853 61.6796C118.398 61.6796 119.655 60.3963 119.655 58.8196L119.657 38.024L119.658 29.1837C119.656 27.6069 118.399 26.3236 116.854 26.3236ZM117.701 58.8196C117.701 59.297 117.32 59.6865 116.852 59.6865L71.8008 59.6829C71.3333 59.6829 70.9519 59.2934 70.9519 58.816L70.9536 27.2085C71.5836 27.7128 72.3312 28.0673 73.1478 28.2225V28.3132H74.0739L110.135 28.3159L116.853 28.3168C117.322 28.3168 117.702 28.7062 117.702 29.1837L117.701 38.024V58.8196Z" fill="#AAAAAA"/>
<path d="M116.682 22.1577H75.507V23.3539H116.682V22.1577Z" fill="#AAAAAA"/>
<path d="M128.144 8.37426C122.014 2.11397 112.247 1.78372 105.728 7.37635L106.375 2.25486L104.439 2L103.348 10.6357L111.805 11.7485L112.055 9.77152L106.784 9.07783C112.535 3.96352 121.292 4.19595 126.764 9.78409C132.477 15.619 132.476 25.1118 126.762 30.9458L128.143 32.3556C134.618 25.7444 134.619 14.9863 128.144 8.37426Z" fill="#AAAAAA"/>
<path d="M60.5742 93.2324H56.9941V97H55.8691V88.4688H61.1543V89.3945H56.9941V92.3125H60.5742V93.2324ZM66.3809 93.5488H64.377V97H63.2461V88.4688H66.0703C67.0312 88.4688 67.7695 88.6875 68.2852 89.125C68.8047 89.5625 69.0645 90.1992 69.0645 91.0352C69.0645 91.5664 68.9199 92.0293 68.6309 92.4238C68.3457 92.8184 67.9473 93.1133 67.4355 93.3086L69.4395 96.9297V97H68.2324L66.3809 93.5488ZM64.377 92.6289H66.1055C66.6641 92.6289 67.1074 92.4844 67.4355 92.1953C67.7676 91.9062 67.9336 91.5195 67.9336 91.0352C67.9336 90.5078 67.7754 90.1035 67.459 89.8223C67.1465 89.541 66.6934 89.3984 66.0996 89.3945H64.377V92.6289ZM76.2188 93.0566H72.5215V96.0801H76.8164V97H71.3965V88.4688H76.7578V89.3945H72.5215V92.1367H76.2188V93.0566ZM83.7891 93.0566H80.0918V96.0801H84.3867V97H78.9668V88.4688H84.3281V89.3945H80.0918V92.1367H83.7891V93.0566ZM93.3926 93.5488H91.3887V97H90.2578V88.4688H93.082C94.043 88.4688 94.7812 88.6875 95.2969 89.125C95.8164 89.5625 96.0762 90.1992 96.0762 91.0352C96.0762 91.5664 95.9316 92.0293 95.6426 92.4238C95.3574 92.8184 94.959 93.1133 94.4473 93.3086L96.4512 96.9297V97H95.2441L93.3926 93.5488ZM91.3887 92.6289H93.1172C93.6758 92.6289 94.1191 92.4844 94.4473 92.1953C94.7793 91.9062 94.9453 91.5195 94.9453 91.0352C94.9453 90.5078 94.7871 90.1035 94.4707 89.8223C94.1582 89.541 93.7051 89.3984 93.1113 89.3945H91.3887V92.6289ZM103.23 93.0566H99.5332V96.0801H103.828V97H98.4082V88.4688H103.77V89.3945H99.5332V92.1367H103.23V93.0566ZM111.99 89.3945H109.248V97H108.129V89.3945H105.393V88.4688H111.99V89.3945ZM120.012 88.4688V94.2695C120.008 95.0742 119.754 95.7324 119.25 96.2441C118.75 96.7559 118.07 97.043 117.211 97.1055L116.912 97.1172C115.979 97.1172 115.234 96.8652 114.68 96.3613C114.125 95.8574 113.844 95.1641 113.836 94.2812V88.4688H114.949V94.2461C114.949 94.8633 115.119 95.3438 115.459 95.6875C115.799 96.0273 116.283 96.1973 116.912 96.1973C117.549 96.1973 118.035 96.0273 118.371 95.6875C118.711 95.3477 118.881 94.8691 118.881 94.252V88.4688H120.012ZM125.666 93.5488H123.662V97H122.531V88.4688H125.355C126.316 88.4688 127.055 88.6875 127.57 89.125C128.09 89.5625 128.35 90.1992 128.35 91.0352C128.35 91.5664 128.205 92.0293 127.916 92.4238C127.631 92.8184 127.232 93.1133 126.721 93.3086L128.725 96.9297V97H127.518L125.666 93.5488ZM123.662 92.6289H125.391C125.949 92.6289 126.393 92.4844 126.721 92.1953C127.053 91.9062 127.219 91.5195 127.219 91.0352C127.219 90.5078 127.061 90.1035 126.744 89.8223C126.432 89.541 125.979 89.3984 125.385 89.3945H123.662V92.6289ZM137.238 97H136.107L131.812 90.4258V97H130.682V88.4688H131.812L136.119 95.0723V88.4688H137.238V97ZM142.5 93.1973C141.535 92.9199 140.832 92.5801 140.391 92.1777C139.953 91.7715 139.734 91.2715 139.734 90.6777C139.734 90.0059 140.002 89.4512 140.537 89.0137C141.076 88.5723 141.775 88.3516 142.635 88.3516C143.221 88.3516 143.742 88.4648 144.199 88.6914C144.66 88.918 145.016 89.2305 145.266 89.6289C145.52 90.0273 145.646 90.4629 145.646 90.9355H144.516C144.516 90.4199 144.352 90.0156 144.023 89.7227C143.695 89.4258 143.232 89.2773 142.635 89.2773C142.08 89.2773 141.646 89.4004 141.334 89.6465C141.025 89.8887 140.871 90.2266 140.871 90.6602C140.871 91.0078 141.018 91.3027 141.311 91.5449C141.607 91.7832 142.109 92.002 142.816 92.2012C143.527 92.4004 144.082 92.6211 144.48 92.8633C144.883 93.1016 145.18 93.3809 145.371 93.7012C145.566 94.0215 145.664 94.3984 145.664 94.832C145.664 95.5234 145.395 96.0781 144.855 96.4961C144.316 96.9102 143.596 97.1172 142.693 97.1172C142.107 97.1172 141.561 97.0059 141.053 96.7832C140.545 96.5566 140.152 96.248 139.875 95.8574C139.602 95.4668 139.465 95.0234 139.465 94.5273H140.596C140.596 95.043 140.785 95.4512 141.164 95.752C141.547 96.0488 142.057 96.1973 142.693 96.1973C143.287 96.1973 143.742 96.0762 144.059 95.834C144.375 95.5918 144.533 95.2617 144.533 94.8438C144.533 94.4258 144.387 94.1035 144.094 93.877C143.801 93.6465 143.27 93.4199 142.5 93.1973Z" fill="#1A1A1A"/>
</svg>
