<svg width="50" height="50" viewBox="0 0 50 50" fill="none" xmlns="http://www.w3.org/2000/svg">
<g clip-path="url(#clip0)">
<path d="M35.0414 35.7752C35.0746 35.7728 35.1079 35.7728 35.1411 35.7752H38.4592C38.5245 35.8464 38.5678 35.9349 38.5839 36.0302C39.176 37.8036 39.7714 39.5769 40.3702 41.3502L42.2712 47.0002C42.2712 47.0852 42.331 47.1652 42.376 47.2802C42.4209 47.1702 42.4558 47.0952 42.4807 47.0202L44.5763 40.8352L46.2079 36.0002C46.2378 35.9152 46.2728 35.8302 46.3077 35.7402H49.6257H49.7405C49.7554 35.7648 49.7655 35.7919 49.7704 35.8202C49.7704 40.4302 49.7704 45.0402 49.7704 49.6502C49.7738 49.6801 49.7738 49.7103 49.7704 49.7402C49.7704 49.7402 49.7355 49.7402 49.7205 49.7402H47.58H47.4752C47.4752 49.6952 47.4752 49.6552 47.4752 49.6202C47.4752 49.5852 47.4752 49.4552 47.4752 49.3702C47.4752 45.8669 47.4752 42.3669 47.4752 38.8702C47.489 38.7607 47.477 38.6494 47.4403 38.5452C47.2757 38.9452 47.1659 39.3252 47.0362 39.6902C46.9064 40.0552 46.7817 40.4402 46.652 40.8152C46.5222 41.1902 46.4025 41.5502 46.2728 41.9152C46.143 42.2802 46.0183 42.6602 45.8886 43.0352L45.5044 44.1602C45.3747 44.5352 45.2499 44.9102 45.1202 45.2802C44.9905 45.6502 44.8657 46.0302 44.736 46.4052C44.6063 46.7802 44.4865 47.1352 44.3568 47.5052C44.2271 47.8752 44.1023 48.2502 43.9726 48.6252C43.8429 49.0002 43.7181 49.3752 43.5934 49.7402C43.3988 49.7802 41.7273 49.7952 41.2134 49.7402C41.1336 49.6852 41.1236 49.5852 41.0986 49.5052L39.8313 45.9002L37.4463 38.9002C37.4463 38.8252 37.3914 38.7502 37.3565 38.6702C37.2916 38.6702 37.3166 38.7452 37.3166 38.7752C37.3166 38.8052 37.3166 38.9402 37.3166 39.0252V49.4702C37.3166 49.5702 37.3166 49.6652 37.3166 49.7702C37.2833 49.7852 37.248 49.7953 37.2118 49.8002H35.1062H35.0463C35.0318 49.7577 35.0201 49.7143 35.0114 49.6702C35.0114 49.6052 35.0114 49.5402 35.0114 49.4752V36.0952C34.9965 35.9877 35.0067 35.8781 35.0414 35.7752Z" fill="black"/>
<path d="M14.0904 42.6603C14.111 43.9049 13.8429 45.1373 13.307 46.2603C12.8884 47.1256 12.2846 47.8878 11.5386 48.4927C10.7927 49.0976 9.92287 49.5304 8.99107 49.7603C8.11249 49.9899 7.20016 50.061 6.29672 49.9703C5.43087 49.8971 4.58552 49.6667 3.80196 49.2903C3.00803 48.9023 2.29993 48.3586 1.71968 47.6912C1.13943 47.0238 0.698843 46.2465 0.424057 45.4053C0.105849 44.4713 -0.0379202 43.4865 -5.21699e-05 42.5003C0.0177286 41.6229 0.186525 40.7551 0.4989 39.9353C0.88667 38.8353 1.56055 37.8591 2.45089 37.1076C3.34122 36.356 4.4157 35.8563 5.56326 35.6603C6.89367 35.3816 8.27505 35.4767 9.55488 35.9353C10.5094 36.2642 11.3749 36.81 12.0839 37.5299C12.7928 38.2499 13.3258 39.1245 13.6413 40.0853C13.872 40.7394 14.0097 41.4227 14.0504 42.1153C14.0704 42.3203 14.0854 42.5453 14.0904 42.6603ZM11.6854 42.6103C11.6813 42.2576 11.6445 41.9061 11.5756 41.5603C11.4739 40.9396 11.2591 40.343 10.942 39.8003C10.6641 39.3078 10.2896 38.8767 9.84117 38.533C9.39272 38.1893 8.87952 37.9401 8.33245 37.8003C7.51456 37.5864 6.65558 37.5864 5.83769 37.8003C4.87644 38.0348 4.02843 38.6013 3.44272 39.4003C3.04503 39.9221 2.75654 40.519 2.5945 41.1553C2.41522 41.8756 2.35954 42.6212 2.42984 43.3603C2.47848 43.9935 2.63368 44.6139 2.88888 45.1953C3.12017 45.7531 3.4664 46.2556 3.90491 46.6701C4.34342 47.0845 4.86433 47.4015 5.43354 47.6003C6.11909 47.8443 6.85162 47.9265 7.57404 47.8403C8.37747 47.7693 9.14542 47.476 9.79213 46.9931C10.4388 46.5101 10.9389 45.8565 11.2364 45.1053C11.5529 44.3126 11.7057 43.4638 11.6854 42.6103Z" fill="black"/>
<path d="M50 7.15004C50.0214 8.31222 49.7916 9.46528 49.3264 10.53C48.9105 11.4839 48.2734 12.3245 47.468 12.9819C46.6627 13.6394 45.7124 14.0947 44.6961 14.31C43.3112 14.6512 41.8573 14.5835 40.5099 14.115C39.5308 13.7938 38.6416 13.2449 37.9148 12.5132C37.1881 11.7814 36.6446 10.8877 36.3287 9.90504C36.0252 8.9972 35.8883 8.04178 35.9245 7.08504C35.9349 6.22524 36.0832 5.3727 36.3636 4.56004C36.7403 3.438 37.4101 2.4376 38.3034 1.66291C39.1967 0.888223 40.2808 0.367545 41.4429 0.155044C42.7724 -0.122799 44.1522 -0.0329226 45.4346 0.415044C46.3951 0.73898 47.2672 1.28266 47.9817 2.00299C48.6962 2.72332 49.2335 3.60051 49.5509 4.56504C49.7832 5.20858 49.9226 5.88203 49.965 6.56504C49.98 6.80004 49.995 7.03004 50 7.15004ZM47.605 7.27004C47.605 7.00004 47.5701 6.72504 47.5401 6.45504C47.4762 5.79789 47.29 5.15855 46.9913 4.57004C46.7364 4.04153 46.3752 3.57151 45.9304 3.18948C45.4857 2.80746 44.9669 2.52167 44.4067 2.35004C43.7029 2.13325 42.9596 2.07688 42.2313 2.18504C41.1397 2.31857 40.143 2.87271 39.4521 3.73004C38.9474 4.35316 38.6046 5.09181 38.4542 5.88004C38.3079 6.5581 38.2708 7.25525 38.3444 7.94504C38.4143 8.62968 38.6087 9.29569 38.9182 9.91004C39.3883 10.9058 40.2253 11.6801 41.2533 12.07C41.9481 12.3337 42.6947 12.4313 43.4338 12.355C44.0921 12.3036 44.7309 12.1072 45.3048 11.78C46.1749 11.2608 46.838 10.4549 47.1809 9.50004C47.4557 8.78855 47.5994 8.03297 47.605 7.27004Z" fill="black"/>
<path d="M8.26262 7.99992L8.50212 8.10992C9.16195 8.38786 9.69046 8.90853 9.97902 9.56492C10.1299 9.89413 10.242 10.2398 10.3133 10.5949C10.5595 11.7349 10.8023 12.8716 11.0418 14.0049C11.0418 14.0949 11.0767 14.1799 11.0917 14.2849C11.051 14.2971 11.0092 14.3055 10.9669 14.3099H8.77155H8.7017C8.7017 14.2599 8.65679 14.1999 8.64183 14.1399C8.44225 13.1899 8.241 12.2399 8.03809 11.2899C7.9882 11.0449 7.91835 10.7899 7.85348 10.5699C7.83878 10.5148 7.81873 10.4612 7.79361 10.4099C7.65355 9.98792 7.39589 9.6149 7.05108 9.33493C6.70627 9.05496 6.2887 8.87972 5.84769 8.82992C5.57815 8.79254 5.3065 8.7725 5.0344 8.76992H2.96375C2.87848 8.75387 2.79029 8.76801 2.71427 8.80992C2.68434 9.06492 2.71427 9.30992 2.71427 9.58992V14.2949C2.67166 14.3062 2.62831 14.3146 2.58455 14.3199H0.444041C0.407516 14.323 0.370797 14.323 0.334272 14.3199V14.1749C0.331773 14.1266 0.331773 14.0782 0.334272 14.0299V0.589918C0.334272 0.489918 0.334272 0.394918 0.334272 0.284918C0.404061 0.280678 0.474043 0.280678 0.543832 0.284918H6.18698C6.8456 0.277725 7.50104 0.377345 8.12791 0.579918C8.49555 0.700865 8.84606 0.868924 9.17072 1.07992C9.89969 1.55136 10.4319 2.27317 10.6676 3.10992C10.892 3.89241 10.892 4.72243 10.6676 5.50492C10.5361 5.98803 10.3047 6.43802 9.98835 6.82565C9.67201 7.21329 9.27784 7.5299 8.83143 7.75492C8.74661 7.80492 8.6568 7.84492 8.56698 7.88992L8.26262 7.99992ZM2.71427 6.65992H6.34166C6.60486 6.64956 6.86451 6.59549 7.11004 6.49992C7.41432 6.39135 7.68704 6.20895 7.90383 5.96902C8.12062 5.72909 8.27474 5.43909 8.35243 5.12492C8.4173 4.87716 8.43758 4.6198 8.41231 4.36492C8.39371 3.97553 8.26196 3.60007 8.03326 3.28472C7.80455 2.96936 7.48886 2.72787 7.12501 2.58992C6.83494 2.47135 6.52518 2.40859 6.21193 2.40492H2.99369C2.90778 2.38934 2.81918 2.39979 2.73922 2.43492C2.70429 2.67992 2.68933 4.93492 2.73922 6.46992C2.69931 6.49992 2.70928 6.56992 2.71427 6.65992Z" fill="black"/>
</g>
<defs>
<clipPath id="clip0">
<rect width="50" height="50" fill="white"/>
</clipPath>
</defs>
</svg>
